<?xml version="1.0" standalone="no"?><!DOCTYPE svg PUBLIC "-//W3C//DTD SVG 1.1//EN" "http://www.w3.org/Graphics/SVG/1.1/DTD/svg11.dtd"><svg class="icon" width="200px" height="200.00px" viewBox="0 0 1024 1024" version="1.1" xmlns="http://www.w3.org/2000/svg"><path d="M512 512m-488.727273 0a488.727273 488.727273 0 1 0 977.454546 0 488.727273 488.727273 0 1 0-977.454546 0Z" /><path d="M412.090182 272.453818l106.728727 106.728727A23.272727 23.272727 0 0 1 502.365091 418.909091h-213.457455a23.272727 23.272727 0 0 1-16.453818-39.726546l106.728727-106.728727a23.272727 23.272727 0 0 1 32.907637 0zM349.090909 395.636364h93.090909v302.545454a46.545455 46.545455 0 1 1-93.090909 0V395.636364zM644.817455 737.908364l106.728727-106.728728a23.272727 23.272727 0 0 0-16.453818-39.726545h-213.457455a23.272727 23.272727 0 0 0-16.453818 39.726545l106.728727 106.728728a23.272727 23.272727 0 0 0 32.907637 0zM581.818182 614.725818h93.090909v-302.545454a46.545455 46.545455 0 1 0-93.090909 0v302.545454z" fill="#FFFFFF" /></svg>